<svg aria-hidden="true" style="position: absolute; width: 0; height: 0; overflow: hidden;" version="1.1" xmlns="http://www.w3.org/2000/svg" xmlns:xlink="http://www.w3.org/1999/xlink">
<defs>
<symbol id="icon-bubbles2" viewBox="0 0 30 32">
<path fill="#61a568" style="fill: var(--color1, #61a568)" d="M11.925 0c6.252 0 11.321 4.615 11.321 10.307s-5.069 10.307-11.321 10.307c-0.601 0-1.189-0.043-1.765-0.125-2.432 2.725-5.24 3.214-8.046 3.285v-0.666c1.515-0.832 2.736-2.348 2.736-4.079 0-0.242-0.017-0.479-0.048-0.711-2.56-1.889-4.198-4.776-4.198-8.010 0-5.692 5.069-10.307 11.321-10.307v-0.001zM24.094 23.102c0 1.484 0.857 2.783 2.17 3.496v0.571c-2.432-0.061-4.665-0.481-6.772-2.815-0.499 0.070-1.009 0.107-1.53 0.107-2.251 0-4.326-0.684-5.981-1.831 3.412-0.014 6.633-1.243 9.076-3.468 1.231-1.121 2.203-2.437 2.887-3.91 0.725-1.562 1.094-3.226 1.094-4.946 0-0.277-0.011-0.553-0.029-0.827 1.712 1.59 2.765 3.758 2.765 6.147 0 2.772-1.419 5.246-3.638 6.866-0.027 0.199-0.042 0.402-0.042 0.61z"></path>
</symbol>
<symbol id="icon-earth" viewBox="0 0 30 32">
<path fill="#61a568" style="fill: var(--color1, #61a568)" d="M13.585 0c-7.503 0-13.585 6.082-13.585 13.585s6.082 13.585 13.585 13.585c7.503 0 13.585-6.082 13.585-13.585s-6.082-13.585-13.585-13.585zM13.585 25.472c-1.67 0-3.26-0.346-4.702-0.967l6.186-6.96c0.138-0.155 0.215-0.356 0.215-0.564v-2.547c0-0.469-0.38-0.849-0.849-0.849-2.998 0-6.161-3.117-6.192-3.147-0.16-0.16-0.375-0.249-0.6-0.249h-3.396c-0.469 0-0.849 0.38-0.849 0.849v5.094c0 0.322 0.182 0.616 0.47 0.759l2.927 1.464v4.985c-3.080-2.148-5.094-5.716-5.094-9.755 0-1.823 0.411-3.55 1.145-5.094h3.101c0.225 0 0.441-0.089 0.6-0.249l3.396-3.396c0.16-0.16 0.249-0.375 0.249-0.6v-2.054c1.077-0.32 2.216-0.493 3.396-0.493 1.868 0 3.635 0.431 5.208 1.199-0.11 0.093-0.217 0.19-0.319 0.293-0.962 0.962-1.492 2.241-1.492 3.603s0.53 2.64 1.492 3.603c0.967 0.967 2.261 1.493 3.599 1.493 0.084 0 0.168-0.002 0.252-0.006 0.367 1.375 1.028 4.952-0.223 9.879-0.012 0.047-0.019 0.093-0.022 0.138-2.157 2.204-5.166 3.573-8.494 3.573h-0.002z"></path>
</symbol>
<symbol id="icon-steam2" viewBox="0 0 32 32">
<path fill="#61a568" style="fill: var(--color1, #61a568)" d="M9.498 26.125c0.848 0 1.681-0.41 2.187-1.169 0.804-1.206 0.478-2.836-0.728-3.64l-2.065-1.377c0.353-0.096 0.725-0.149 1.109-0.149 2.325 0 4.209 1.884 4.209 4.209s-1.885 4.209-4.209 4.209c-2.263 0-4.108-1.785-4.205-4.024l2.249 1.499c0.448 0.298 0.953 0.441 1.454 0.441l-0.001 0.001zM26.667 0c2.934 0 5.333 2.4 5.333 5.334v21.332c0 2.936-2.399 5.334-5.333 5.334h-21.333c-2.934 0-5.334-2.398-5.334-5.334v-6.345l3.792 2.528c-0.364 1.974 0.217 4.088 1.744 5.615 2.466 2.466 6.463 2.466 8.929 0 1.515-1.515 2.098-3.607 1.752-5.568l7.783-6.968c1.445-0.207 2.838-0.867 3.95-1.979 2.734-2.734 2.734-7.166 0-9.899s-7.166-2.734-9.9 0c-1.112 1.112-1.771 2.505-1.979 3.95l-6.397 9.695c-0.995 0.051-1.981 0.336-2.866 0.856l-6.808-4.539v-8.678c0-2.934 2.4-5.334 5.334-5.334h21.333zM28 9c0-2.761-2.239-5-5-5s-5 2.239-5 5c0 2.761 2.239 5 5 5s5-2.239 5-5zM20 9c0-1.657 1.343-3 3-3s3 1.343 3 3c0 1.657-1.343 3-3 3s-3-1.343-3-3z"></path>
</symbol>
<symbol id="icon-Vector" viewBox="0 0 30 32">
<path fill="#61a568" style="fill: var(--color1, #61a568)" d="M27.774 17.29v-14.82h-20.377c0-1.365-0.76-2.47-1.698-2.47h-5.094v2.47h3.396l1.275 15.903c-0.777 0.905-1.275 2.296-1.275 3.857 0 2.728 1.521 4.94 3.396 4.94h20.377v-2.47h-20.377c-0.938 0-1.698-1.105-1.698-2.47 0-0.009 0-0.017 0-0.025l22.075-4.915z"></path>
</symbol>
<symbol id="icon-Vector-1" viewBox="0 0 30 32">
<path fill="#61a568" style="fill: var(--color1, #61a568)" d="M27.259 13.802c0-7.299-5.969-13.216-13.333-13.216s-13.333 5.917-13.333 13.216c0 1.585 0.282 3.105 0.798 4.513-0.507 0.857-0.798 1.855-0.798 2.921 0 2.913 2.173 5.322 5 5.723v-11.446c-0.831 0.118-1.606 0.409-2.285 0.836-0.14-0.69-0.215-1.403-0.215-2.134 0-5.931 4.85-10.738 10.833-10.738s10.833 4.807 10.833 10.738c0 0.731-0.073 1.445-0.214 2.134-0.68-0.427-1.454-0.719-2.286-0.837v11.447c2.827-0.401 5-2.81 5-5.723 0-1.066-0.291-2.063-0.798-2.921 0.517-1.408 0.798-2.928 0.798-4.514v0.001z"></path>
</symbol>
<symbol id="icon-Vector-2" viewBox="0 0 30 32">
<path fill="#61a568" style="fill: var(--color1, #61a568)" d="M22.852 4.347v-3.768h-16.667v3.768h-5v3.768c0 3.121 2.238 5.652 5 5.652 0.522 0 1.027-0.090 1.501-0.259 1.203 1.943 3.037 3.349 5.166 3.838v5.84h-1.667c-1.841 0-3.333 1.687-3.333 3.768h13.333c0-2.081-1.492-3.768-3.333-3.768h-1.667v-5.84c2.129-0.489 3.963-1.895 5.166-3.838 0.473 0.169 0.978 0.259 1.501 0.259 2.762 0 5-2.53 5-5.652v-3.768h-5zM6.185 11.529c-1.666 0-3.021-1.532-3.021-3.414v-1.884h3.021v1.884c0 1.183 0.193 2.314 0.546 3.358-0.177 0.037-0.359 0.057-0.546 0.057zM25.873 8.115c0 1.883-1.355 3.414-3.021 3.414-0.187 0-0.368-0.020-0.546-0.057 0.352-1.043 0.546-2.175 0.546-3.358v-1.884h3.021v1.884z"></path>
</symbol>
<symbol id="icon-Vector-3" viewBox="0 0 36 32">
<path fill="#f5f5f5" style="fill: var(--color1, #f5f5f5)" d="M0 0.444v22.222h35.556v-22.222h-35.556zM33.333 20.444h-31.111v-17.778h31.111v17.778zM23.333 24.889h-11.111l-1.111 4.444-2.222 2.222h17.778l-2.222-2.222-1.111-4.444z"></path>
</symbol>
<symbol id="icon-Vector-4" viewBox="0 0 43 32">
<path fill="#f5f5f5" style="fill: var(--color1, #f5f5f5)" d="M38.667 0h-34.667c-2.2 0-4 1.8-4 4v24c0 2.2 1.8 4 4 4h34.667c2.2 0 4-1.8 4-4v-24c0-2.2-1.8-4-4-4zM4 2.667h34.667c0.723 0 1.333 0.611 1.333 1.333v4h-37.333v-4c0-0.723 0.611-1.333 1.333-1.333zM38.667 29.333h-34.667c-0.723 0-1.333-0.611-1.333-1.333v-12h37.333v12c0 0.723-0.611 1.333-1.333 1.333zM5.333 21.333h2.667v5.333h-2.667v-5.333zM10.667 21.333h2.667v5.333h-2.667v-5.333zM16 21.333h2.667v5.333h-2.667v-5.333z"></path>
</symbol>
<symbol id="icon-Vector-5" viewBox="0 0 22 32">
<path fill="#f5f5f5" style="fill: var(--color1, #f5f5f5)" d="M11.2 0c-5.523 0-10 4.477-10 10 0 10 10 22 10 22s10-12 10-22c0-5.523-4.477-10-10-10zM11.2 16c-3.314 0-6-2.686-6-6s2.686-6 6-6c3.314 0 6 2.686 6 6s-2.686 6-6 6z"></path>
</symbol>
<symbol id="icon-users-1" viewBox="0 0 34 32">
<path fill="#f5f5f5" style="fill: var(--color1, #f5f5f5)" d="M21.513 24.082v-1.649c1.975-1.241 3.585-4.337 3.585-7.432 0-4.971 0-9-5.378-9s-5.378 4.029-5.378 9c0 3.096 1.611 6.191 3.585 7.432v1.649c-6.081 0.555-10.756 3.888-10.756 7.918h25.098c0-4.030-4.676-7.364-10.756-7.918z"></path>
<path fill="#f5f5f5" style="fill: var(--color1, #f5f5f5)" d="M9.165 24.854c1.549-1.13 3.475-1.989 5.596-2.513-0.421-0.556-0.804-1.176-1.134-1.844-0.852-1.726-1.302-3.627-1.302-5.497 0-2.689 0-5.228 0.857-7.305 0.832-2.016 2.329-3.265 4.46-3.734-0.474-2.39-1.735-3.961-5.093-3.961-5.378 0-5.378 4.029-5.378 9 0 3.096 1.611 6.191 3.585 7.432v1.649c-6.081 0.555-10.756 3.888-10.756 7.918h7.815c0.407-0.403 0.857-0.787 1.35-1.146v0.001z"></path>
</symbol>
</defs>
</svg>
